<svg width="50" height="50" viewBox="0 0 50 50" fill="none" xmlns="http://www.w3.org/2000/svg">
<path fill-rule="evenodd" clip-rule="evenodd" d="M10 13.9441C10 13.3069 10.5166 12.7903 11.1538 12.7903H38.8462C39.4834 12.7903 40 13.3069 40 13.9441C40 14.5814 39.4834 15.098 38.8462 15.098H11.1538C10.5166 15.098 10 14.5814 10 13.9441Z" fill="black"/>
<path fill-rule="evenodd" clip-rule="evenodd" d="M10 25.2727C10 24.6355 10.5166 24.1189 11.1538 24.1189H38.8462C39.4834 24.1189 40 24.6355 40 25.2727C40 25.91 39.4834 26.4266 38.8462 26.4266H11.1538C10.5166 26.4266 10 25.91 10 25.2727Z" fill="black"/>
<path fill-rule="evenodd" clip-rule="evenodd" d="M10 36.6014C10 35.9641 10.5166 35.4475 11.1538 35.4475H38.8462C39.4834 35.4475 40 35.9641 40 36.6014C40 37.2386 39.4834 37.7552 38.8462 37.7552H11.1538C10.5166 37.7552 10 37.2386 10 36.6014Z" fill="black"/>
</svg>
